<?xml version="1.0" encoding="UTF-8"?>
<!DOCTYPE svg PUBLIC "-//W3C//DTD SVG 1.1//EN" "http://www.w3.org/Graphics/SVG/1.1/DTD/svg11.dtd">
<!-- Creator: CorelDRAW -->
<svg xmlns="http://www.w3.org/2000/svg" xml:space="preserve" width="3930px" height="900px" version="1.1" style="shape-rendering:geometricPrecision; text-rendering:geometricPrecision; image-rendering:optimizeQuality; fill-rule:evenodd; clip-rule:evenodd"
viewBox="0 0 3930 900"
 xmlns:xlink="http://www.w3.org/1999/xlink"
 xmlns:xodm="http://www.corel.com/coreldraw/odm/2003">
 <defs>
  <style type="text/css">
   <![CDATA[
    .fil0 {fill:#FF033E;fill-rule:nonzero}
   ]]>
  </style>
 </defs>
 <g id="Layer_x0020_1">
  <metadata id="CorelCorpID_0Corel-Layer"/>
  <path class="fil0" d="M315.07 272.05l-2.64 471.1 -138.63 35.02 2.05 -506.12 -99.03 0 0 -114.82 337.29 0 0 114.82 -99.04 0zm546.25 -114.82l-1.6 514.46 -144.8 13.53 -0.72 -235.19 -111.23 0 0.81 247.61 -147.08 20.02 -0.85 -560.43 147.12 0 0 176.54 111.23 0 0 -176.54 147.12 0zm443.62 364.56l0 114.11 -359.98 29 -0.28 -507.67 360.26 0 0 110.52 -216.01 0 0 69.61 174.39 0 0 106.21 -174.39 0 0 78.22 216.01 0zm357.03 -65.3l-156.45 0 0 179.41 -142.81 0 0 -478.67 345.9 0 0 114.1 -203.09 0 0 77.51 156.45 0 0 107.65zm429.03 61.71l0 117.7 -335.86 0 0 -478.67 147.12 0 0 360.97 188.74 0zm251.05 124.87c-67.34,0 -122.24,-22.36 -164.7,-66.98 -42.46,-44.61 -63.63,-104.3 -63.63,-179.05 0,-71.4 20.34,-130.49 60.88,-177.14 40.55,-46.52 96.88,-69.85 168.89,-69.85 66.62,0 121.04,22.01 163.02,65.91 41.98,43.89 62.92,102.5 62.92,175.82 0,75.95 -21.18,136.83 -63.52,182.64 -42.34,45.81 -96.88,68.65 -163.86,68.65zm-0.59 -108.36c24.87,0 42.81,-10.89 53.7,-32.53 10.88,-21.65 16.38,-61.24 16.38,-118.77 0,-83.37 -22.48,-124.99 -67.33,-124.99 -48.44,0 -72.61,47.48 -72.61,142.57 0,89.1 23.33,133.72 69.86,133.72zm684.62 -377.48l-139.82 222.59 182.73 295.67 -183.65 -14.55 -96.44 -175.39 -89.75 164.05 -134.27 -13.7 154.29 -247.47 -147.83 -231.2 170.92 0 74.39 128.34 76.79 -128.34 132.64 0zm249.86 114.82l-2.8 424.61 -136.77 -14.84 0.35 -409.77 -99.03 0 0 -114.82 337.29 0 0 114.82 -99.04 0zm575.07 -114.82l-188.09 606.89 -78.38 -18.49 -187.43 -588.4 154.65 0 76.07 260.26c5.14,15.43 9.81,30.5 13.75,45.45l88.63 -305.71 120.8 0z"/>
 </g>
</svg>
